<svg width="99" height="25" viewBox="0 0 99 25" fill="none" xmlns="http://www.w3.org/2000/svg">
<g clip-path="url(#clip0_56_16)">
<path d="M13.2 13.16L14.2455 17L15.291 13.16C15.5535 12.1955 15.6855 11.7125 15.9435 11.315C16.1711 10.9659 16.4689 10.6681 16.818 10.4405C17.2125 10.1825 17.6955 10.052 18.663 9.788L22.503 8.7425L18.663 7.697C17.6985 7.4345 17.217 7.3025 16.818 7.0445C16.4689 6.8169 16.1711 6.51907 15.9435 6.17C15.6855 5.7755 15.555 5.2925 15.291 4.325L14.2455 0.485001L13.2 4.325C12.9375 5.2895 12.8055 5.7725 12.5475 6.17C12.3199 6.51907 12.0221 6.8169 11.673 7.0445C11.2785 7.3025 10.7955 7.433 9.828 7.697L5.988 8.7425L9.828 9.788C10.7925 10.0505 11.2755 10.1825 11.673 10.4405C12.0221 10.6681 12.3199 10.9659 12.5475 11.315C12.8055 11.7095 12.936 12.1925 13.2 13.16ZM4.02 21.05C4.2735 21.416 4.416 21.863 4.704 22.76L5.247 24.44L5.79 22.76C6.0765 21.8675 6.2205 21.4205 6.474 21.05C6.6975 20.726 6.984 20.45 7.3155 20.2355C7.689 19.994 8.1405 19.865 9.0405 19.6085L10.497 19.193L9.0405 18.7775C8.139 18.5195 7.6875 18.3905 7.3155 18.1505C6.98422 17.9369 6.69827 17.6601 6.474 17.336C6.2205 16.97 6.078 16.523 5.79 15.626L5.247 13.946L4.704 15.626C4.4175 16.5185 4.2735 16.9655 4.02 17.336C3.7965 17.66 3.51 17.936 3.1785 18.1505C2.805 18.392 2.3535 18.521 1.4535 18.7775L-0.00299835 19.193L1.4535 19.6085C2.355 19.8665 2.8065 19.9955 3.1785 20.2355C3.50979 20.4491 3.79573 20.7259 4.02 21.05Z" fill="white"/>
</g>
<path d="M38.3047 16.3125V18H32.5859V16.3125H38.3047ZM33.2344 6.625V18H31.0859V6.625H33.2344ZM39.2188 13.8594V13.6953C39.2188 13.0755 39.3073 12.5052 39.4844 11.9844C39.6615 11.4583 39.9193 11.0026 40.2578 10.6172C40.5964 10.2318 41.0104 9.93229 41.5 9.71875C41.9896 9.5 42.5469 9.39062 43.1719 9.39062C43.8073 9.39062 44.3698 9.5 44.8594 9.71875C45.3542 9.93229 45.7708 10.2318 46.1094 10.6172C46.4479 11.0026 46.7057 11.4583 46.8828 11.9844C47.0599 12.5052 47.1484 13.0755 47.1484 13.6953V13.8594C47.1484 14.474 47.0599 15.0443 46.8828 15.5703C46.7057 16.0911 46.4479 16.5469 46.1094 16.9375C45.7708 17.3229 45.3568 17.6224 44.8672 17.8359C44.3776 18.0495 43.8177 18.1562 43.1875 18.1562C42.5625 18.1562 42.0026 18.0495 41.5078 17.8359C41.013 17.6224 40.5964 17.3229 40.2578 16.9375C39.9193 16.5469 39.6615 16.0911 39.4844 15.5703C39.3073 15.0443 39.2188 14.474 39.2188 13.8594ZM41.2812 13.6953V13.8594C41.2812 14.2292 41.3177 14.5755 41.3906 14.8984C41.4635 15.2214 41.5755 15.5052 41.7266 15.75C41.8776 15.9948 42.0729 16.1875 42.3125 16.3281C42.5573 16.4635 42.849 16.5312 43.1875 16.5312C43.5208 16.5312 43.8073 16.4635 44.0469 16.3281C44.2865 16.1875 44.4818 15.9948 44.6328 15.75C44.7891 15.5052 44.9036 15.2214 44.9766 14.8984C45.0495 14.5755 45.0859 14.2292 45.0859 13.8594V13.6953C45.0859 13.3307 45.0495 12.9896 44.9766 12.6719C44.9036 12.349 44.7891 12.0651 44.6328 11.8203C44.4818 11.5703 44.2839 11.375 44.0391 11.2344C43.7995 11.0885 43.5104 11.0156 43.1719 11.0156C42.8385 11.0156 42.5521 11.0885 42.3125 11.2344C42.0729 11.375 41.8776 11.5703 41.7266 11.8203C41.5755 12.0651 41.4635 12.349 41.3906 12.6719C41.3177 12.9896 41.2812 13.3307 41.2812 13.6953ZM48.2812 13.8594V13.6953C48.2812 13.0755 48.3698 12.5052 48.5469 11.9844C48.724 11.4583 48.9818 11.0026 49.3203 10.6172C49.6589 10.2318 50.0729 9.93229 50.5625 9.71875C51.0521 9.5 51.6094 9.39062 52.2344 9.39062C52.8698 9.39062 53.4323 9.5 53.9219 9.71875C54.4167 9.93229 54.8333 10.2318 55.1719 10.6172C55.5104 11.0026 55.7682 11.4583 55.9453 11.9844C56.1224 12.5052 56.2109 13.0755 56.2109 13.6953V13.8594C56.2109 14.474 56.1224 15.0443 55.9453 15.5703C55.7682 16.0911 55.5104 16.5469 55.1719 16.9375C54.8333 17.3229 54.4193 17.6224 53.9297 17.8359C53.4401 18.0495 52.8802 18.1562 52.25 18.1562C51.625 18.1562 51.0651 18.0495 50.5703 17.8359C50.0755 17.6224 49.6589 17.3229 49.3203 16.9375C48.9818 16.5469 48.724 16.0911 48.5469 15.5703C48.3698 15.0443 48.2812 14.474 48.2812 13.8594ZM50.3438 13.6953V13.8594C50.3438 14.2292 50.3802 14.5755 50.4531 14.8984C50.526 15.2214 50.638 15.5052 50.7891 15.75C50.9401 15.9948 51.1354 16.1875 51.375 16.3281C51.6198 16.4635 51.9115 16.5312 52.25 16.5312C52.5833 16.5312 52.8698 16.4635 53.1094 16.3281C53.349 16.1875 53.5443 15.9948 53.6953 15.75C53.8516 15.5052 53.9661 15.2214 54.0391 14.8984C54.112 14.5755 54.1484 14.2292 54.1484 13.8594V13.6953C54.1484 13.3307 54.112 12.9896 54.0391 12.6719C53.9661 12.349 53.8516 12.0651 53.6953 11.8203C53.5443 11.5703 53.3464 11.375 53.1016 11.2344C52.862 11.0885 52.5729 11.0156 52.2344 11.0156C51.901 11.0156 51.6146 11.0885 51.375 11.2344C51.1354 11.375 50.9401 11.5703 50.7891 11.8203C50.638 12.0651 50.526 12.349 50.4531 12.6719C50.3802 12.9896 50.3438 13.3307 50.3438 13.6953ZM59.7344 11.3516V18H57.6719V9.54688H59.6094L59.7344 11.3516ZM59.4062 13.4688H58.7969C58.8021 12.8542 58.8854 12.2969 59.0469 11.7969C59.2083 11.2969 59.4349 10.8672 59.7266 10.5078C60.0234 10.1484 60.375 9.8724 60.7812 9.67969C61.1875 9.48698 61.6406 9.39062 62.1406 9.39062C62.5469 9.39062 62.9141 9.44792 63.2422 9.5625C63.5703 9.67708 63.8516 9.85938 64.0859 10.1094C64.3255 10.3594 64.5078 10.6875 64.6328 11.0938C64.763 11.4948 64.8281 11.9896 64.8281 12.5781V18H62.75V12.5625C62.75 12.1771 62.6927 11.8724 62.5781 11.6484C62.4688 11.4245 62.3073 11.2656 62.0938 11.1719C61.8854 11.0781 61.6276 11.0312 61.3203 11.0312C61.0026 11.0312 60.724 11.0964 60.4844 11.2266C60.25 11.3516 60.0521 11.526 59.8906 11.75C59.7344 11.974 59.6146 12.2318 59.5312 12.5234C59.4479 12.8151 59.4062 13.1302 59.4062 13.4688ZM68.8359 9.54688V18H66.7656V9.54688H68.8359ZM66.625 7.33594C66.625 7.02865 66.7292 6.77344 66.9375 6.57031C67.151 6.36719 67.4375 6.26562 67.7969 6.26562C68.1562 6.26562 68.4401 6.36719 68.6484 6.57031C68.862 6.77344 68.9688 7.02865 68.9688 7.33594C68.9688 7.63802 68.862 7.89062 68.6484 8.09375C68.4401 8.29688 68.1562 8.39844 67.7969 8.39844C67.4375 8.39844 67.151 8.29688 66.9375 8.09375C66.7292 7.89062 66.625 7.63802 66.625 7.33594ZM74.6016 18.1562C73.9609 18.1562 73.3854 18.0521 72.875 17.8438C72.3646 17.6354 71.9297 17.3464 71.5703 16.9766C71.2161 16.6016 70.9427 16.1667 70.75 15.6719C70.5625 15.1719 70.4688 14.6354 70.4688 14.0625V13.75C70.4688 13.099 70.5625 12.5078 70.75 11.9766C70.9375 11.4401 71.2031 10.9792 71.5469 10.5938C71.8906 10.2083 72.3021 9.91146 72.7812 9.70312C73.2604 9.49479 73.7891 9.39062 74.3672 9.39062C74.9661 9.39062 75.4948 9.49219 75.9531 9.69531C76.4115 9.89323 76.7943 10.1745 77.1016 10.5391C77.4089 10.9036 77.6406 11.3411 77.7969 11.8516C77.9531 12.3568 78.0312 12.9167 78.0312 13.5312V14.3984H71.4062V12.9766H76V12.8203C75.9896 12.4922 75.9271 12.1927 75.8125 11.9219C75.6979 11.6458 75.5208 11.4271 75.2812 11.2656C75.0417 11.099 74.7318 11.0156 74.3516 11.0156C74.0443 11.0156 73.776 11.0833 73.5469 11.2188C73.3229 11.349 73.1354 11.5365 72.9844 11.7812C72.8385 12.0208 72.7292 12.3073 72.6562 12.6406C72.5833 12.974 72.5469 13.3438 72.5469 13.75V14.0625C72.5469 14.4167 72.5938 14.7448 72.6875 15.0469C72.7865 15.349 72.9297 15.612 73.1172 15.8359C73.3099 16.0547 73.5391 16.2266 73.8047 16.3516C74.0755 16.4714 74.3828 16.5312 74.7266 16.5312C75.1589 16.5312 75.5495 16.4479 75.8984 16.2812C76.2526 16.1094 76.5599 15.8568 76.8203 15.5234L77.8594 16.6016C77.6823 16.862 77.4427 17.112 77.1406 17.3516C76.8438 17.5911 76.4844 17.7865 76.0625 17.9375C75.6406 18.0833 75.1536 18.1562 74.6016 18.1562ZM83.9297 12.9297H81.0234L81.0078 11.4141H83.5C83.9271 11.4141 84.2839 11.3542 84.5703 11.2344C84.8568 11.1146 85.0729 10.9401 85.2188 10.7109C85.3698 10.4818 85.4453 10.2031 85.4453 9.875C85.4453 9.51042 85.375 9.21354 85.2344 8.98438C85.099 8.75521 84.8854 8.58854 84.5938 8.48438C84.3021 8.375 83.9323 8.32031 83.4844 8.32031H81.7188V18H79.5703V6.625H83.4844C84.1302 6.625 84.7057 6.6875 85.2109 6.8125C85.7214 6.93229 86.1536 7.11979 86.5078 7.375C86.862 7.63021 87.1302 7.95052 87.3125 8.33594C87.5 8.72135 87.5938 9.17969 87.5938 9.71094C87.5938 10.1797 87.4844 10.612 87.2656 11.0078C87.0521 11.3984 86.7214 11.7161 86.2734 11.9609C85.8307 12.2057 85.2682 12.3464 84.5859 12.3828L83.9297 12.9297ZM83.8359 18H80.3906L81.2891 16.3125H83.8359C84.263 16.3125 84.6146 16.2422 84.8906 16.1016C85.1719 15.9609 85.3802 15.7682 85.5156 15.5234C85.6562 15.2734 85.7266 14.987 85.7266 14.6641C85.7266 14.3099 85.6641 14.0026 85.5391 13.7422C85.4193 13.4818 85.2266 13.2812 84.9609 13.1406C84.7005 13 84.3568 12.9297 83.9297 12.9297H81.6953L81.7109 11.4141H84.5547L85.0469 12C85.7031 12.0052 86.237 12.1354 86.6484 12.3906C87.0651 12.6458 87.3724 12.974 87.5703 13.375C87.7682 13.776 87.8672 14.2083 87.8672 14.6719C87.8672 15.401 87.7083 16.013 87.3906 16.5078C87.0781 17.0026 86.6198 17.375 86.0156 17.625C85.4167 17.875 84.6901 18 83.8359 18ZM91.7578 9.54688V18H89.6875V9.54688H91.7578ZM89.5469 7.33594C89.5469 7.02865 89.651 6.77344 89.8594 6.57031C90.0729 6.36719 90.3594 6.26562 90.7188 6.26562C91.0781 6.26562 91.362 6.36719 91.5703 6.57031C91.7839 6.77344 91.8906 7.02865 91.8906 7.33594C91.8906 7.63802 91.7839 7.89062 91.5703 8.09375C91.362 8.29688 91.0781 8.39844 90.7188 8.39844C90.3594 8.39844 90.0729 8.29688 89.8594 8.09375C89.651 7.89062 89.5469 7.63802 89.5469 7.33594ZM97.7266 9.54688V11.0312H92.8828V9.54688H97.7266ZM94.1797 7.46875H96.25V15.5625C96.25 15.8125 96.2839 16.0052 96.3516 16.1406C96.4193 16.276 96.5208 16.3672 96.6562 16.4141C96.7917 16.4609 96.9531 16.4844 97.1406 16.4844C97.276 16.4844 97.401 16.4766 97.5156 16.4609C97.6302 16.4453 97.7266 16.4297 97.8047 16.4141L97.8125 17.9609C97.6406 18.0182 97.4453 18.0651 97.2266 18.1016C97.013 18.138 96.7708 18.1562 96.5 18.1562C96.0365 18.1562 95.6302 18.0781 95.2812 17.9219C94.9323 17.7604 94.6615 17.5026 94.4688 17.1484C94.276 16.7891 94.1797 16.3151 94.1797 15.7266V7.46875Z" fill="white"/>
<defs>
<clipPath id="clip0_56_16">
<rect width="24" height="24" fill="white" transform="translate(0 0.5)"/>
</clipPath>
</defs>
</svg>
