<svg width="61" height="36" viewBox="0 0 61 36" fill="none" xmlns="http://www.w3.org/2000/svg">
<rect width="61" height="36" rx="6" fill="white"/>
<path d="M31.1355 15.8363C31.1144 17.5079 32.6188 18.4407 33.7521 18.9954C34.9164 19.5644 35.3075 19.9293 35.3029 20.4382C35.2942 21.217 34.3742 21.5607 33.5132 21.5741C32.0111 21.5975 31.1377 21.1668 30.4433 20.8411L29.9022 23.3841C30.5989 23.7065 31.8888 23.9877 33.2264 24C36.3664 24 38.4206 22.4433 38.4317 20.0298C38.444 16.9666 34.2132 16.7971 34.2421 15.4279C34.252 15.0128 34.6465 14.5697 35.5108 14.4571C35.9386 14.4002 37.1195 14.3567 38.4585 14.9759L38.984 12.5155C38.2639 12.2521 37.3385 12 36.1863 12C33.2309 12 31.1523 13.5779 31.1355 15.8363ZM44.0336 12.2119C43.4603 12.2119 42.9771 12.5478 42.7615 13.0633L38.2762 23.8193H41.4138L42.0382 22.0862H45.8723L46.2345 23.8193H49L46.5868 12.2119H44.0336ZM44.4726 15.3475L45.378 19.7062H42.8982L44.4726 15.3475ZM27.3313 12.2121L24.8581 23.8191H27.848L30.3201 12.2118L27.3313 12.2121ZM22.9082 12.2121L19.7962 20.1124L18.5373 13.3948C18.3896 12.6449 17.8063 12.2119 17.1585 12.2119H12.0713L12 12.549C13.0444 12.7766 14.231 13.1437 14.9499 13.5365C15.3898 13.7765 15.5153 13.9862 15.6598 14.5564L18.0442 23.8193H21.2037L26.0479 12.2119L22.9082 12.2121Z" fill="url(#paint0_linear_85_195)"/>
<defs>
<linearGradient id="paint0_linear_85_195" x1="1713.04" y1="48.072" x2="1747.92" y2="-1184.34" gradientUnits="userSpaceOnUse">
<stop stop-color="#222357"/>
<stop offset="1" stop-color="#254AA5"/>
</linearGradient>
</defs>
</svg>
